<svg width="61" height="90" viewBox="0 0 61 90" fill="none" xmlns="http://www.w3.org/2000/svg">
<path d="M58.1181 33.1422C57.982 31.877 58.1415 30.0663 57.8204 29.0631C57.8204 29.0527 57.8151 29.032 57.8087 28.9968C57.1144 31.7756 57.9809 34.8483 56.5478 37.4221C55.3421 39.0455 55.3782 40.9877 55.5005 42.8978C55.576 46.0949 55.8195 49.2981 55.8057 52.493C55.4101 54.9705 52.9924 52.4837 51.6475 53.0397C50.344 53.7644 49.2542 52.8585 48.9555 51.5675C48.2059 53.0852 48.8077 54.3535 50.1984 55.0099C50.7523 55.366 50.8788 56.7699 49.9209 56.5959C47.4681 56.1911 45.6234 57.7596 43.3578 58.1696C44.8718 58.9844 49.1958 56.5131 48.9427 59.4668C48.8141 61.0074 46.642 60.146 46.2093 61.5882C47.8742 62.9869 47.0162 65.6528 45.0397 66.305C38.668 67.4252 32.5089 63.4548 27.0622 60.6968C22.9381 58.1261 20.7681 53.6412 19.9324 49.0848C19.5571 48.1168 23.4665 49.9835 24.0587 49.0517C16.7226 48.2524 14.1476 29.2059 23.9928 36.2615C24.9167 37.3124 25.3855 38.6531 25.6875 39.9886C25.6875 41.1668 28.2168 38.2949 31.047 39.8344C34.7874 41.0892 36.9021 37.4677 39.6408 35.7729C42.0798 34.0853 44.8112 32.7446 46.9918 30.7485C47.9614 29.9017 44.4178 30.585 43.9021 29.2691C42.6135 27.858 40.6169 27.0235 38.9051 28.2338C37.5517 29.2919 35.3657 30.8096 35.1478 32.4154C38.2449 28.797 40.1448 28.1706 44.1063 31.0778C44.6272 31.2362 44.5135 31.4981 44.2423 31.7435C43.5183 32.4361 42.5327 32.0541 41.6907 31.847C39.4718 30.8935 36.6862 31.5499 36.4151 34.1319C37.0307 32.9713 40.4042 31.5312 40.7094 33.1287C37.7749 35.2418 35.4582 39.6459 31.2395 38.621C29.7872 38.2069 27.8521 37.7006 27.042 36.4531C29.1684 37.3931 32.2804 38.1096 33.9825 36.1487C26.2127 39.8126 25.2558 27.0018 19.4774 30.8065C21.7962 30.5498 25.6535 34.6744 21.9759 33.6619C19.134 32.6266 17.4881 36.5442 14.8812 35.0658C12.4305 33.1494 16.3622 34.9446 16.8672 33.3151C17.1479 32.961 16.8949 32.6939 16.5132 32.8864C13.8446 33.5946 13.4809 32.8181 11.6703 31.6151C11.648 31.9723 12.3476 33.1836 11.6097 33.05C10.992 33.0852 9.08996 31.4971 9.87247 32.7311C11.3003 34.3348 14.8068 35.8308 13.8063 38.3218C12.6772 36.7854 12.5592 36.6808 11.7118 36.509C12.2136 37.4687 12.6836 38.4077 12.6293 39.5C11.5342 38.4543 11.3333 36.4924 9.47483 36.0907C8.73804 35.8277 7.73545 35.0057 7.90343 34.2272C9.05806 34.9798 9.82356 35.3929 10.8421 35.0782C9.49078 33.958 7.57491 33.3202 7.34419 31.0716C7.51537 30.2858 5.5676 27.2803 6.50959 27.4004C7.19063 27.8083 7.70996 28.4286 7.98317 29.1604C11.3237 33.4911 10.3116 29.706 8.32658 27.5391C7.69611 26.4106 3.8112 23.6629 4.06743 26.3237C4.88928 28.8229 6.05879 31.4733 5.16252 34.1164C3.75485 37.2637 3.1063 32.4599 2.88941 31.2175C2.58108 30.3634 2.78309 29.0527 2.2398 28.4357C1.84535 28.9181 2.02716 29.8333 1.99207 30.4618C2.79904 34.9643 1.67311 41.7186 5.22418 45.6714C5.71538 48.475 7.09115 50.9597 9.8948 52.2974C11.3429 54.8856 10.3817 58.6997 10.3615 61.6741C9.88629 67.7016 6.10557 72.4651 2.76289 77.2906C-5.60445 93.842 6.21295 75.4426 22.398 81.2082C29.717 83.5987 36.3045 87.9294 44.0084 89.209C50.6651 91.0332 33.8018 81.3915 33.1033 79.4938C32.1039 76.1808 33.9411 72.2963 34.1962 68.8436C34.4014 67.771 34.1654 67.7255 35.5784 67.7876C38.7063 67.9532 41.8799 68.1313 44.977 67.5567C50.0644 66.7005 46.4315 62.0955 48.9449 60.9494C50.3174 60.6709 49.7593 59.1738 49.8496 58.2576C50.0059 57.8331 50.5939 57.9335 50.9702 57.7327C52.4587 57.0742 50.4897 54.5036 52.7277 54.4932C54.6096 54.7676 57.1017 54.8318 56.8306 52.2663C56.8146 48.6779 56.4638 45.101 56.4372 41.5126C56.383 38.5682 58.7029 36.186 58.1181 33.1422ZM9.75871 48.3601C7.41224 46.5442 4.58839 44.7438 5.08065 41.4101C6.03753 42.933 6.40433 44.4591 7.98105 45.4954C8.52646 45.7056 11.0792 48.9564 9.75871 48.3601ZM10.6029 44.9726C8.17348 44.398 7.17833 42.3574 6.63823 40.1605C6.58401 38.8498 3.04145 35.0668 6.42559 37.2761C6.63823 37.4449 6.73498 37.7451 7.04969 37.7824C7.19216 37.3828 6.30545 36.1259 7.16983 36.5701C10.3764 38.2265 8.33934 42.0209 10.6231 44.2417C10.9782 44.4818 11.3865 45.22 10.6029 44.9726ZM32.5206 67.5919C31.6903 71.0871 31.2225 74.6434 30.5973 78.1748C29.1716 79.3964 26.4509 77.2264 25.175 76.2626C23.0231 74.7355 16.2984 65.7687 19.4901 73.7778C19.5773 74.6061 21.1763 76.8982 19.7517 77.0132C14.457 74.2437 13.9371 66.4531 16.207 61.5592C17.3595 59.4658 19.7729 59.8654 21.3932 61.1968C24.5733 64.0915 29.2683 65.3474 32.5206 67.5919ZM36.4055 34.1402C36.4162 34.1402 36.4247 34.1402 36.4162 34.1247C36.4116 34.1299 36.4073 34.1355 36.4034 34.1412L36.4055 34.1402ZM10.1755 31.2206H10.1882C10.1882 31.2206 10.1787 31.2134 10.1755 31.2206Z" fill="white"/>
<path d="M60.5273 19.9814C59.3365 17.2761 57.679 13.8648 54.1907 13.7975C53.7888 13.84 53.6229 13.5708 53.6335 13.2126C53.7898 9.89959 40.0512 18.3083 37.9493 18.7804C36.1844 19.4358 41.0655 15.4602 41.4355 14.9053C45.3055 11.6596 48.6089 6.47584 53.7324 5.25832C54.2576 5.52854 54.4884 5.15479 54.4671 4.65371C55.2974 1.62958 51.9952 0.252631 49.4371 1.65702e-05C46.8769 -0.00826586 45.9084 3.0904 44.4741 4.71997C44.0776 5.39602 43.6533 6.0493 42.9293 5.28007C40.3776 3.63911 37.8642 1.88738 34.697 1.61613C36.9244 2.68559 40.1437 3.63911 40.989 5.9116C40.2841 5.60101 39.7567 4.82867 38.9359 4.8763C39.3006 5.24694 40.1246 7.43867 39.2932 6.67358C38.0663 4.7179 35.9431 3.55525 33.8379 2.69181C30.1242 1.24238 28.1732 5.98821 20.7968 5.22312C25.393 7.39002 31.1417 2.24352 35.5922 5.75734C35.4625 4.81418 34.2228 4.6651 33.7667 3.90725C36.4948 4.26133 37.3475 6.89203 38.9668 8.66965C40.2819 10.3137 39.0167 9.20283 38.1077 8.9233C38.5404 9.83023 39.795 10.7868 39.3251 11.7383C38.8254 12.3522 36.514 7.92734 35.0276 7.55566C32.0709 5.49541 28.405 6.34022 25.3707 7.77204C22.1322 9.2898 19.1797 5.44364 15.9901 7.02352C13.4491 7.68922 12.4815 10.8966 10.1276 11.4205C4.35555 11.2061 12.5496 9.03925 13.3278 7.22851C14.1784 6.17353 15.4372 5.73767 16.4866 4.9643C15.5297 4.77484 14.8004 5.48195 13.9243 5.53579C14.6855 3.96005 16.8502 3.37407 18.5354 3.20221C20.4491 3.03863 22.3469 3.43205 24.2575 3.49003C35.2764 2.00954 24.536 -0.556977 20.2694 0.920402C21.742 1.114 23.0975 1.29725 24.2394 2.10893C19.4806 1.42977 13.9434 2.06027 11.7341 6.95001C11.1961 8.32489 9.38127 8.02466 8.63385 9.22768C7.28891 10.9328 6.2491 12.8378 5.0647 14.6423C4.26093 16.6829 0.682218 22.0799 3.52095 24.5502C4.24604 23.1815 5.37516 22.1089 7.16239 22.8098C10.2456 24.6972 7.63657 20.2112 5.81213 21.1016C1.66567 23.0562 6.43303 19.4741 7.18471 18.6168C6.06092 18.7856 5.30073 19.7557 4.29283 20.0425C4.91054 16.8185 6.80303 15.2293 9.44294 13.2747C11.2897 11.4236 12.187 16.7647 13.9998 13.9445C15.0332 11.7424 17.772 11.2061 19.4678 10.0797C17.9155 9.99484 16.4356 10.6926 15.1714 11.5085C15.0396 11.5923 14.912 11.7662 14.6781 11.5499C16.6982 8.54748 18.9681 7.98014 22.3565 9.20801C26.3966 9.80331 27.1228 6.37024 31.7041 9.71531C32.6482 10.3696 37.9376 14.5274 35.8623 15.1838C32.7311 16.012 30.5697 10.1253 27.277 11.9402C24.653 14.721 22.6776 16.4365 18.5885 15.1548C14.5814 15.0119 15.5287 17.7151 10.1478 15.9437C9.19096 16.1756 8.01401 16.5007 7.44945 17.2896C9.55138 17.0763 11.7309 16.8309 13.1492 18.8001C14.3028 20.4752 16.8375 21.0074 18.2313 19.1914C17.4126 19.4565 15.2097 19.7091 15.2873 18.7297C16.0393 18.5841 16.7063 18.1655 17.1532 17.5588C18.126 16.2574 19.8112 17.4294 21.0573 17.6799C24.5743 18.9678 25.3504 13.724 28.4178 13.7054C29.6298 13.8213 30.9088 14.3266 31.7137 15.2438C30.2188 15.0968 28.5943 14.4156 27.2397 15.483C26.3488 16.4044 30.2039 15.2977 30.3666 16.5069C27.8723 16.6933 24.6838 16.7989 22.8764 18.5527C25.3898 17.4863 27.1749 20.1201 29.6309 19.5569C23.0391 17.6343 29.6978 16.2325 32.0656 18.2814C37.0626 16.7989 40.7604 11.6337 43.8373 7.59397C46.0838 5.26868 47.8944 -0.240174 51.7474 2.67835C52.8106 3.18151 45.9435 8.60029 45.2269 9.85404C42.1861 12.9009 39.122 15.9799 35.5029 18.3849C34.1324 19.4958 32.1304 19.9576 30.7929 20.7661C34.7342 21.5851 38.4479 19.3053 42.0543 18.0795C46.8791 16.7864 54.0822 12.022 57.8491 17.2834C59.4694 19.2639 60.236 22.2528 59.5279 24.7158C59.3493 24.984 59.5906 25.2024 59.867 25.0078C60.875 24.7282 60.9377 20.762 60.5273 19.9814ZM24.2394 2.10893C24.2564 2.10893 24.1873 2.14724 24.1884 2.14931L24.2394 2.10893ZM37.5293 13.7054C35.1212 11.6348 33.3659 8.21826 29.7361 7.29994C31.719 6.69429 33.3882 7.07735 34.8395 8.35802C35.74 9.48754 39.4154 12.4992 37.5293 13.7085V13.7054ZM39.6047 9.64801C39.5452 9.62317 39.5356 9.58382 39.576 9.53309C39.6175 9.56829 39.6557 9.61488 39.6047 9.65112V9.64801ZM35.6092 5.76976L35.5922 5.75734C35.5922 5.76873 35.5858 5.78012 35.5816 5.79151L35.6092 5.76976ZM26.9888 15.9044C26.9888 15.8847 26.9888 15.8795 26.9676 15.8826L26.9888 15.9044ZM7.19109 18.5899C7.19168 18.601 7.19168 18.612 7.19109 18.6231L7.2198 18.6158L7.19109 18.5899Z" fill="white"/>
<path d="M35.2732 30.1129C34.0314 32.6576 31.1821 33.078 28.657 32.198C28.9568 33.6101 30.8557 34.429 32.2463 34.1267C25.4929 38.5785 26.4253 22.3139 18.227 29.296C16.8523 30.822 15.0098 32.6928 12.9919 31.1885C11.9595 30.908 9.37702 27.0349 11.7841 28.3632C17.0246 30.9183 18.3589 21.4919 23.0625 23.6246C22.5128 24.1723 21.3699 24.1826 20.9169 25.0451C20.4023 25.6352 22.6382 25.3556 23.0593 26.129C26.4976 29.5124 30.3964 33.958 35.2732 30.1129Z" fill="white"/>
<path d="M27.5938 21.2765C30.4995 25.5099 36.245 23.0159 39.4112 26.1187C35.3115 23.7965 30.256 28.9699 26.9495 24.6899C25.7672 22.7684 24.6105 20.6523 21.9759 20.733C18.9224 20.5694 17.9464 23.9362 16.1283 25.6942C13.3831 28.9181 9.35469 26.5877 9.56733 22.7539C12.624 29.4099 16.1017 23.6277 19.2839 20.8107C22.5702 18.3321 25.6737 21.5582 27.6459 24.0274C28.9217 25.3732 31.2299 26.1135 32.9459 25.2355C30.6048 24.6102 28.3029 24.0429 27.5938 21.2765Z" fill="white"/>
<path d="M53.4975 37.3838C49.9581 37.0432 46.339 38.3063 42.9516 39.1832C44.1467 42.374 47.6786 39.5766 50.0984 39.6211C50.4663 39.4327 51.9696 39.853 51.1722 40.1563C49.8124 40.0031 48.5472 40.5125 47.3033 40.968C45.0408 41.3821 47.6371 43.3006 48.4133 44.0491C50.0144 45.7729 56.4223 38.063 53.4975 37.3838ZM50.7129 42.0168C50.6066 44.5181 46.5431 42.2404 47.5521 41.3894C48.3473 41.232 50.7342 40.5436 50.7129 42.0168Z" fill="white"/>
<path d="M56.181 20.0124C53.1094 16.3992 52.6448 20.8521 49.4488 21.1016C51.9707 23.254 54.348 17.7161 55.9673 21.8149C54.0854 19.6408 52.4832 22.8792 50.4216 22.2539C49.1671 21.7145 47.5978 21.5364 46.6845 20.4607C46.1848 19.8074 45.5246 19.8458 44.8324 19.9493C44.439 20.2671 41.5206 20.674 42.4668 19.9234C43.0953 19.7483 43.6562 19.3956 44.0786 18.9098C45.7074 17.7565 47.7998 20.0487 49.6487 19.9451C51.8686 20.1263 53.4539 14.0429 56.181 20.0124Z" fill="white"/>
<path d="M26.6763 26.8144C32.0433 31.3501 32.8119 26.0265 37.7335 26.4903C37.6612 26.744 37.5017 26.7512 37.372 26.773C35.858 26.9997 34.9862 28.2545 33.94 29.1997C31.4521 31.9909 27.5087 29.913 26.6763 26.8144Z" fill="white"/>
<path d="M51.1 26.042C51.2818 26.4645 51.7166 26.4717 51.9611 26.7202C47.8859 26.3402 49.738 22.8782 43.0303 23.9497C48.6387 20.937 49.7114 25.1486 52.143 24.7976C52.9839 24.4746 53.8579 23.9383 54.4448 25.0409C53.1083 24.5367 52.2822 25.7004 51.1 26.042Z" fill="white"/>
<path d="M19.1542 38.6572C19.505 34.9488 24.317 36.6032 23.0773 39.7743C22.971 39.9379 22.971 40.2609 23.2421 40.2112C24.4691 39.3053 24.0576 41.054 23.711 41.613C22.9604 42.7519 20.8404 42.0685 21.2518 40.616C21.3092 39.7381 22.416 38.7784 21.7685 37.9656C20.7979 37.0121 19.8622 38.0847 19.1542 38.6572Z" fill="white"/>
<path d="M21.3252 11.1627C22.8934 12.3263 24.4637 10.8024 26.0681 10.8748C24.2915 12.2539 22.6255 15.0161 20.1365 13.1142C18.7342 12.1027 17.2436 13.4072 15.8933 13.7137C16.3696 12.6038 17.0565 12.1276 18.1622 12.1255C19.3264 11.9288 22.6893 13.7561 22.8509 12.1255C22.2959 11.8646 21.6027 11.7476 21.3252 11.1627Z" fill="white"/>
<path d="M50.7002 27.7824C48.3133 28.7825 46.995 26.1156 44.64 26.4531C42.8134 26.7109 46.5792 29.0848 47.2118 29.2991C45.5107 29.471 44.5454 28.2887 43.5747 27.1105C43.3397 26.7502 41.9799 26.4945 42.8634 26.1963C47.1034 24.4415 47.2873 26.9966 50.7002 27.7824Z" fill="white"/>
<path d="M46.0019 12.815C47.6914 10.8666 50.6343 9.52378 52.951 8.15614C53.9482 7.49872 54.8764 9.5507 53.86 9.74533C51.0574 10.088 48.4016 11.4712 45.987 12.816L46.0019 12.815Z" fill="white"/>
<path d="M11.9064 21.9102C12.2859 22.0934 12.6623 22.2932 13.2141 22.1431C12.5613 21.5602 11.7639 21.2113 11.5757 20.4172C13.0791 21.7952 14.9779 21.6824 16.8417 21.4525C16.2857 23.4362 12.4784 24.1402 11.9064 21.9102Z" fill="white"/>
<path d="M37.4847 21.3014C39.7567 21.7538 41.5684 21.9039 43.7512 21.6172C42.2478 23.9994 39.3091 23.4103 37.4847 21.3014Z" fill="white"/>
<path d="M20.6065 43.1422C21.6059 43.9942 22.6914 43.7696 23.845 43.4424C24.6721 47.0194 19.5847 44.2976 19.6273 42.2073C19.6273 42.2073 20.229 42.8699 20.6065 43.1422Z" fill="white"/>
<path d="M56.4191 25.0606C54.6946 22.9289 53.0041 24.1029 51.1031 23.4269C52.8797 22.9413 56.1544 22.2891 56.4191 25.0606Z" fill="white"/>
<path d="M7.21342 18.6127L7.36865 18.5092C7.39948 18.7131 7.15813 18.532 7.21342 18.6127Z" fill="white"/>
<path d="M35.5805 5.79772C35.6442 5.79193 35.7079 5.80937 35.7591 5.84667C35.8104 5.88397 35.8456 5.93846 35.858 5.9996C35.7708 5.94473 35.6677 5.75009 35.5805 5.79772Z" fill="white"/>
<path d="M56.2628 22.0924C56.1682 22.023 56.0683 21.7911 55.9673 21.8149C56.1406 21.8377 56.1554 22.0054 56.2628 22.0924Z" fill="white"/>
<path d="M11.9276 21.9304L11.8521 21.9607C11.8713 21.9499 11.9117 21.8872 11.9276 21.9304Z" fill="white"/>
<path d="M35.2552 30.1336L35.2435 30.0549C35.2499 30.0735 35.2881 30.1191 35.2552 30.1336Z" fill="white"/>
<path d="M10.1755 31.2206L10.2276 31.1565C10.2116 31.1741 10.2052 31.2237 10.1755 31.2206Z" fill="white"/>
<path d="M27.6416 21.2817L27.5789 21.3314C27.7341 21.3853 27.5353 21.2579 27.6416 21.2817Z" fill="white"/>
<path d="M11.6246 20.4245L11.5566 20.4783C11.7192 20.5415 11.5247 20.3955 11.6246 20.4245Z" fill="white"/>
<path d="M56.1437 19.9897C56.2852 19.9627 56.1724 20.1056 56.2128 19.9721C56.2256 19.9286 56.165 19.9265 56.1788 20.0104L56.1437 19.9897Z" fill="white"/>
<path d="M32.0677 18.2814L32.0911 18.3466C32.0794 18.3249 32.022 18.3 32.0677 18.2814Z" fill="white"/>
<path d="M26.9676 15.8826C26.9038 16.0079 27.0909 15.8992 26.9591 15.9551C26.8527 15.9913 26.8878 15.8516 26.9888 15.9044L26.9676 15.8826Z" fill="white"/>
<path d="M21.3688 11.1813C21.2274 11.2103 21.3443 11.0581 21.3167 11.1948C21.3103 11.2279 21.3635 11.2269 21.3326 11.1637L21.3688 11.1813Z" fill="white"/>
<path d="M35.8633 5.97476L35.8782 6.02445C35.9622 5.93127 35.858 6.00996 35.8633 5.97476Z" fill="white"/>
<path d="M56.2288 22.0706L56.2851 22.0603C56.1873 21.9619 56.2979 22.1276 56.2288 22.0706Z" fill="white"/>
</svg>
